<svg width="32" height="32" viewBox="0 0 32 32" fill="none" xmlns="http://www.w3.org/2000/svg">
<path fill-rule="evenodd" clip-rule="evenodd" d="M9.87284 19.9188C10.0489 20.4423 9.76722 21.0094 9.24374 21.1854C7.54867 21.7554 6.64783 23.1784 6.16596 24.6254C5.97462 25.2 5.85902 25.7531 5.78956 26.2105C6.24694 26.1411 6.80009 26.0255 7.37468 25.8341C8.82168 25.3523 10.2446 24.4514 10.8147 22.7563C10.9907 22.2329 11.5578 21.9512 12.0812 22.1272C12.6047 22.3033 12.8864 22.8703 12.7103 23.3938C11.8554 25.9362 9.74082 27.1542 8.00657 27.7317C7.13049 28.0234 6.31032 28.1674 5.71168 28.2392C5.41091 28.2753 5.16226 28.2936 4.98561 28.3029C4.89719 28.3076 4.82652 28.31 4.77608 28.3112C4.75085 28.3119 4.73066 28.3122 4.7158 28.3124L4.69754 28.3125L4.69148 28.3126L4.68923 28.3126L4.6883 28.3126C4.68789 28.3126 4.6875 28.3126 4.6875 27.3126C3.6875 27.3126 3.6875 27.3122 3.6875 27.3118L3.6875 27.3108L3.68751 27.3086L3.68753 27.3025L3.6877 27.2843C3.68788 27.2694 3.68822 27.2492 3.68884 27.224C3.69009 27.1736 3.69251 27.1029 3.69716 27.0145C3.70645 26.8378 3.72475 26.5892 3.76083 26.2884C3.83264 25.6898 3.97667 24.8696 4.26841 23.9935C4.84592 22.2593 6.06383 20.1447 8.60626 19.2897C9.12974 19.1137 9.6968 19.3954 9.87284 19.9188ZM4.6875 27.3126H3.6875C3.6875 27.8649 4.13522 28.3126 4.6875 28.3126V27.3126Z" fill="white"/>
<path fill-rule="evenodd" clip-rule="evenodd" d="M26.4743 5.52591C25.3136 5.35851 22.4565 5.29544 19.5325 8.21946L11.7521 15.9999L16.0004 20.2481L23.7808 12.4678C26.7048 9.54373 26.6417 6.68663 26.4743 5.52591ZM26.7643 3.54704C25.168 3.31593 21.6096 3.31392 18.1183 6.80525L9.63078 15.2928C9.44325 15.4803 9.33789 15.7346 9.33789 15.9999C9.33789 16.2651 9.44325 16.5194 9.63078 16.707L15.2933 22.3695C15.6838 22.76 16.317 22.76 16.7075 22.3695L25.195 13.882C28.6863 10.3906 28.6843 6.83225 28.4532 5.23593C28.3947 4.80869 28.198 4.41226 27.893 4.10726C27.588 3.80225 27.1916 3.60553 26.7643 3.54704Z" fill="white"/>
<path fill-rule="evenodd" clip-rule="evenodd" d="M23.0752 13.5879C23.6275 13.5879 24.0752 14.0356 24.0752 14.5879V22.6629L24.0751 22.6771C24.0676 23.2024 23.8538 23.7035 23.48 24.0723L19.4444 28.1204C19.1882 28.3763 18.8674 28.5578 18.5161 28.6457C18.1648 28.7335 17.7963 28.7243 17.4498 28.6191C17.1033 28.5138 16.7919 28.3165 16.5488 28.0482C16.3059 27.7801 16.1403 27.4511 16.0696 27.0962C16.0695 27.0959 16.0696 27.0965 16.0696 27.0962L15.0197 21.8595C14.9111 21.3179 15.2621 20.791 15.8036 20.6824C16.3451 20.5738 16.8721 20.9248 16.9807 21.4663L18.031 26.7054L22.0752 22.6487V14.5879C22.0752 14.0356 22.5229 13.5879 23.0752 13.5879Z" fill="white"/>
<path fill-rule="evenodd" clip-rule="evenodd" d="M9.32317 7.92491L9.33741 7.9248H17.4124C17.9647 7.9248 18.4124 8.37252 18.4124 8.9248C18.4124 9.47709 17.9647 9.9248 17.4124 9.9248H9.35155L9.34347 9.93305L9.34342 9.933L5.29492 13.969L5.29647 13.9693L10.534 15.0193C11.0755 15.1279 11.4265 15.6549 11.3179 16.1964C11.2093 16.7379 10.6824 17.0889 10.1408 16.9803L4.90489 15.9306C4.90459 15.9305 4.90429 15.9305 4.90399 15.9304C4.5492 15.8597 4.22022 15.6941 3.9521 15.4512C3.68376 15.2081 3.48645 14.8967 3.38123 14.5502C3.27601 14.2037 3.26682 13.8352 3.35464 13.4839C3.44246 13.1326 3.624 12.8118 3.87989 12.5556L3.88139 12.5541L3.8814 12.5541L7.92796 8.52003C8.29678 8.14622 8.79791 7.93239 9.32317 7.92491Z" fill="white"/>
</svg>
