<svg width="49" height="49" viewBox="0 0 49 49" fill="none" xmlns="http://www.w3.org/2000/svg">
<g clip-path="url(#clip0_2230_1470)">
<path d="M45.2837 20.2838L43.7941 21.7376L43.9473 19.1527L37.0953 27.0199L33.2915 24.7148L23.9261 33.9629L20.3037 31.0328L6.13605 45.5L3.5 41.9009L20.2998 28.4085L23.9067 31.3526L32.9919 22.0608L36.5814 24.3041L43.0401 18.0007L40.718 17.8316L42.2076 16.3777L45.5 16.6185L45.2837 20.2838Z" fill="#E01E1E"/>
<path d="M21.8134 24.993C26.935 24.993 31.087 20.8305 31.087 15.6958C31.087 10.5611 26.935 6.39861 21.8134 6.39861C16.6917 6.39861 12.5398 10.5611 12.5398 15.6958C12.5398 20.8305 16.6917 24.993 21.8134 24.993Z" fill="#FFD550"/>
<path d="M31.1036 5.61182C31.5854 5.12873 31.5854 4.34548 31.1036 3.86239C30.6217 3.3793 29.8404 3.3793 29.3586 3.86239C28.8767 4.34548 28.8767 5.12873 29.3586 5.61182C29.8404 6.09491 30.6217 6.09491 31.1036 5.61182Z" fill="#FFD550"/>
<path d="M13.0943 27.8915C13.8927 27.8915 14.5399 27.2426 14.5399 26.4421C14.5399 25.6417 13.8927 24.9928 13.0943 24.9928C12.2959 24.9928 11.6487 25.6417 11.6487 26.4421C11.6487 27.2426 12.2959 27.8915 13.0943 27.8915Z" fill="#FFD550"/>
<path d="M33.0913 30.0032C33.673 30.0032 34.1445 29.5304 34.1445 28.9473C34.1445 28.3642 33.673 27.8915 33.0913 27.8915C32.5097 27.8915 32.0381 28.3642 32.0381 28.9473C32.0381 29.5304 32.5097 30.0032 33.0913 30.0032Z" fill="#FFD550"/>
<path d="M22.3371 21.0385V22.7054H21.2972V21.0999C19.8773 21.0999 18.7239 20.8798 17.8375 20.4393V19.1026C18.2239 19.3638 18.7524 19.5827 19.4223 19.7594C20.0923 19.9361 20.7173 20.0243 21.2972 20.0243V16.0912C19.8306 15.5484 18.8807 15.0479 18.4474 14.5895C18.014 14.1312 17.7975 13.5897 17.7975 12.9647C17.7975 12.2223 18.1274 11.5809 18.7874 11.0405C19.4474 10.5002 20.2838 10.1763 21.2972 10.0688V8.686H22.3371V10.038C23.6435 10.0688 24.547 10.2122 25.0469 10.4682V11.7742C24.367 11.3645 23.4635 11.1442 22.3371 11.1135V15.1695C23.7236 15.6764 24.6719 16.1669 25.1819 16.6405C25.6918 17.1143 25.9469 17.6533 25.9469 18.2575C25.9469 18.9847 25.6284 19.5954 24.992 20.0897C24.3553 20.584 23.4704 20.9001 22.3373 21.0384L22.3371 21.0385ZM21.2972 14.7393V11.1596C20.7372 11.2467 20.2938 11.4374 19.9672 11.7318C19.6405 12.0264 19.4773 12.3836 19.4773 12.8034C19.4773 13.2439 19.6105 13.6049 19.8772 13.8866C20.1437 14.1683 20.6171 14.4525 21.297 14.7393H21.2972ZM22.3371 16.4908V19.963C23.6236 19.7479 24.267 19.2153 24.267 18.3653C24.267 17.6585 23.6236 17.0338 22.3371 16.4909V16.4908Z" fill="white"/>
</g>
<defs>
<clipPath id="clip0_2230_1470">
<rect width="42" height="42" fill="white" transform="translate(3.5 3.5)"/>
</clipPath>
</defs>
</svg>
