<svg width="13" height="13" viewBox="0 0 13 13" fill="none" xmlns="http://www.w3.org/2000/svg">
<g clip-path="url(#clip0_2263_1332)">
<path d="M1.99977 5H11.4998M5.74977 2L4.74977 5L6.74977 10.75L8.74977 5L7.74977 2M7.05706 10.6313L11.5364 5.25607C11.6123 5.16498 11.6502 5.11943 11.6648 5.06858C11.6775 5.02375 11.6775 4.97624 11.6648 4.93142C11.6502 4.88057 11.6123 4.83502 11.5364 4.74393L9.36971 2.14393C9.32562 2.09102 9.30358 2.06457 9.27655 2.04555C9.25261 2.0287 9.2259 2.01619 9.19763 2.00858C9.16572 2 9.13128 2 9.06242 2H4.43712C4.36825 2 4.33382 2 4.30191 2.00858C4.27364 2.01619 4.24692 2.0287 4.22298 2.04555C4.19596 2.06457 4.17392 2.09102 4.12983 2.14393L1.96316 4.74393C1.88725 4.83502 1.84929 4.88057 1.83479 4.93142C1.822 4.97624 1.822 5.02375 1.83479 5.06858C1.84929 5.11943 1.88725 5.16498 1.96316 5.25607L6.44248 10.6313C6.54801 10.7579 6.60077 10.8212 6.66394 10.8443C6.71937 10.8646 6.78017 10.8646 6.83559 10.8443C6.89876 10.8212 6.95153 10.7579 7.05706 10.6313Z" stroke="#6F4FF2" stroke-linecap="round" stroke-linejoin="round"/>
</g>
<defs>
<clipPath id="clip0_2263_1332">
<rect width="12" height="12" fill="white" transform="translate(0.75 0.5)"/>
</clipPath>
</defs>
</svg>
